<?xml version="1.0" encoding="utf-8"?>
<!-- Generator: Adobe Illustrator 17.1.0, SVG Export Plug-In . SVG Version: 6.00 Build 0)  -->
<!DOCTYPE svg PUBLIC "-//W3C//DTD SVG 1.1//EN" "http://www.w3.org/Graphics/SVG/1.1/DTD/svg11.dtd">
<svg version="1.1" id="Layer_1" xmlns="http://www.w3.org/2000/svg" xmlns:xlink="http://www.w3.org/1999/xlink" x="0px" y="0px"
	 viewBox="0 0 422 396" enable-background="new 0 0 422 396" xml:space="preserve">
<g>
	<polyline fill="#FFFFFF" stroke="#000000" stroke-width="2" stroke-miterlimit="10" points="205,388.8 413.6,315.9 305.8,7.2 
		8.4,113.3 32.3,181.5 59.2,172.1 113.1,326.4 143.3,315.9 156.5,353.7 188.8,342.4 205,388.8 	"/>
	<polyline fill="#E6E6E6" points="98.1,250.3 114.9,298.5 200.4,268.6 183.5,220.4 98.1,250.3 	"/>
	<polyline fill="#E6E6E6" points="224.3,291.3 247.8,358.7 352.3,322.2 328.8,254.8 224.3,291.3 	"/>
	<polyline fill="#E6E6E6" points="93.7,130.4 104.8,162.2 190.3,132.4 179.2,100.5 93.7,130.4 	"/>
	<g>
		<polyline fill="#FFFFFF" stroke="#C22E33" stroke-width="2" stroke-miterlimit="10" points="242.1,250.6 227.2,208.1 206,215.5 
			220.8,258 242.1,250.6 		"/>
		<polyline fill="#FFFFFF" stroke="#C22E33" stroke-width="2" stroke-miterlimit="10" points="227.2,208.1 212.4,165.6 191.2,173.1 
			206,215.5 227.2,208.1 		"/>
		<polygon fill="#FFFFFF" stroke="#C22E33" stroke-width="2" stroke-miterlimit="10" points="170,180.6 212.4,165.5 204.8,144.3 
			162.4,159.4 		"/>
		<polyline fill="#FFFFFF" stroke="#C22E33" stroke-width="2" stroke-miterlimit="10" points="269.5,192.9 254.7,150.4 233.5,157.8 
			248.3,200.3 269.5,192.9 		"/>
		<polyline fill="#FFFFFF" stroke="#C22E33" stroke-width="2" stroke-miterlimit="10" points="284.4,235.3 269.5,192.9 248.3,200.3 
			263.2,242.7 284.4,235.3 		"/>
		<polygon fill="#FFFFFF" stroke="#C22E33" stroke-width="2" stroke-miterlimit="10" points="249.6,271.6 291.9,256.5 284.4,235.3 
			242,250.4 		"/>
		
			<rect x="152.4" y="293.8" transform="matrix(-0.9418 0.3362 -0.3362 -0.9418 442.1855 533.528)" fill="#FFFFFF" stroke="#C22E33" stroke-width="2" stroke-miterlimit="10" width="45" height="22.5"/>
		<polyline fill="#FFFFFF" stroke="#C22E33" stroke-width="2" stroke-miterlimit="10" points="110.8,218.8 96,176.4 74.8,183.8 
			89.6,226.3 110.8,218.8 		"/>
		<polygon fill="#FFFFFF" stroke="#C22E33" stroke-width="2" stroke-miterlimit="10" points="125.5,260.7 110.6,218.3 89.4,225.7 
			104.3,268.2 		"/>
		<polyline fill="#FFFFFF" stroke="#C22E33" stroke-width="2" stroke-miterlimit="10" points="379.3,250.8 364.5,208.4 343.3,215.8 
			358.1,258.2 379.3,250.8 		"/>
		<polyline fill="#FFFFFF" stroke="#C22E33" stroke-width="2" stroke-miterlimit="10" points="364.5,208.4 349.7,165.9 328.4,173.3 
			343.3,215.8 364.5,208.4 		"/>
		<polyline fill="#FFFFFF" stroke="#C22E33" stroke-width="2" stroke-miterlimit="10" points="349.7,165.9 334.9,123.4 313.6,130.8 
			328.4,173.3 349.7,165.9 		"/>
		<polyline fill="#FFFFFF" stroke="#C22E33" stroke-width="2" stroke-miterlimit="10" points="334.9,123.4 320.1,81 298.8,88.4 
			313.6,130.8 334.9,123.4 		"/>
		<polygon fill="#FFFFFF" stroke="#C22E33" stroke-width="2" stroke-miterlimit="10" points="394.1,293.3 379.3,250.8 358.1,258.2 
			372.9,300.7 		"/>
		<polyline fill="#FFFFFF" stroke="#C22E33" stroke-width="2" stroke-miterlimit="10" points="175.9,89 218.2,73.8 210.7,52.7 
			168.3,67.8 175.9,89 		"/>
		<polyline fill="#FFFFFF" stroke="#C22E33" stroke-width="2" stroke-miterlimit="10" points="133.4,104.1 175.9,89 168.3,67.8 
			125.9,82.9 133.4,104.1 		"/>
		<polyline fill="#FFFFFF" stroke="#C22E33" stroke-width="2" stroke-miterlimit="10" points="218.2,73.8 260.6,58.7 253,37.5 
			210.7,52.7 218.2,73.8 		"/>
		
			<rect x="86" y="89.8" transform="matrix(-0.9418 0.3362 -0.3362 -0.9418 244.6325 159.7289)" fill="#FFFFFF" stroke="#C22E33" stroke-width="2" stroke-miterlimit="10" width="45" height="22.5"/>
		<polyline fill="#FFFFFF" stroke="#C22E33" stroke-width="2" stroke-miterlimit="10" points="212.4,165.5 254.7,150.4 247.1,129.2 
			204.8,144.3 212.4,165.5 		"/>
		<polyline fill="#FFFFFF" stroke="#C22E33" stroke-width="2" stroke-miterlimit="10" points="96,176.4 81.1,133.9 59.9,141.3 
			74.8,183.8 96,176.4 		"/>
	</g>
	<g>
		<path d="M176.9,308.1h-1.8v-5l0-0.8l0-0.9c-0.3,0.3-0.5,0.5-0.6,0.6l-1,0.8l-0.9-1.1l2.8-2.2h1.5V308.1z"/>
	</g>
	<g>
		<path d="M270,257.1h-6v-1.3l2.2-2.2c0.6-0.7,1.1-1.1,1.2-1.4s0.3-0.5,0.4-0.7s0.1-0.4,0.1-0.7c0-0.3-0.1-0.6-0.3-0.8
			s-0.4-0.3-0.8-0.3c-0.3,0-0.7,0.1-1,0.2s-0.6,0.4-1,0.7l-1-1.2c0.4-0.4,0.8-0.6,1-0.8s0.6-0.3,0.9-0.3s0.7-0.1,1.1-0.1
			c0.5,0,1,0.1,1.4,0.3s0.7,0.5,1,0.8s0.3,0.8,0.3,1.2c0,0.4-0.1,0.8-0.2,1.1s-0.4,0.7-0.6,1.1s-0.8,0.9-1.5,1.6l-1.1,1v0.1h3.7
			V257.1z"/>
	</g>
	<g>
		<path d="M226.6,230.5c0,0.5-0.2,1-0.5,1.4s-0.8,0.6-1.4,0.8v0c0.7,0.1,1.2,0.3,1.6,0.6s0.5,0.8,0.5,1.4c0,0.8-0.3,1.5-0.9,1.9
			s-1.5,0.7-2.6,0.7c-0.9,0-1.8-0.2-2.5-0.5v-1.5c0.3,0.2,0.7,0.3,1.1,0.4s0.8,0.2,1.2,0.2c0.6,0,1-0.1,1.3-0.3s0.4-0.5,0.4-1
			c0-0.4-0.2-0.7-0.5-0.9s-0.9-0.3-1.6-0.3h-0.7V232h0.7c0.7,0,1.1-0.1,1.5-0.3s0.5-0.5,0.5-0.9c0-0.6-0.4-1-1.2-1
			c-0.3,0-0.6,0-0.9,0.1s-0.6,0.3-1,0.5l-0.8-1.2c0.8-0.6,1.7-0.8,2.8-0.8c0.9,0,1.6,0.2,2.1,0.5S226.6,229.8,226.6,230.5z"/>
	</g>
	<g>
		<path d="M212.6,193.4h-1v1.8h-1.8v-1.8h-3.7v-1.3l3.8-5.5h1.7v5.4h1V193.4z M209.8,192v-1.5c0-0.2,0-0.6,0-1.1s0-0.7,0-0.8h0
			c-0.1,0.3-0.3,0.6-0.5,0.9l-1.6,2.4H209.8z"/>
	</g>
	<g>
		<path d="M188.6,161.2c0.8,0,1.5,0.2,2,0.7s0.7,1.1,0.7,1.9c0,1-0.3,1.7-0.9,2.2s-1.4,0.8-2.5,0.8c-1,0-1.7-0.2-2.3-0.5v-1.6
			c0.3,0.2,0.7,0.3,1.1,0.4s0.8,0.2,1.2,0.2c1.1,0,1.7-0.5,1.7-1.4c0-0.9-0.6-1.3-1.7-1.3c-0.2,0-0.4,0-0.7,0.1s-0.5,0.1-0.6,0.1
			l-0.7-0.4l0.3-4.4h4.6v1.5h-3.1l-0.2,1.7l0.2,0C187.9,161.2,188.2,161.2,188.6,161.2z"/>
	</g>
	<g>
		<path d="M227.4,148c0-1.7,0.4-3,1.1-3.8s1.8-1.2,3.2-1.2c0.5,0,0.9,0,1.1,0.1v1.4c-0.3-0.1-0.7-0.1-1-0.1c-0.6,0-1.1,0.1-1.5,0.3
			s-0.7,0.5-0.9,0.8s-0.3,0.9-0.3,1.6h0.1c0.4-0.7,1-1,1.9-1c0.8,0,1.4,0.2,1.8,0.7s0.7,1.1,0.7,2c0,0.9-0.3,1.6-0.8,2.2
			s-1.2,0.8-2.1,0.8c-0.6,0-1.2-0.1-1.7-0.4s-0.8-0.7-1.1-1.3S227.4,148.8,227.4,148z M230.5,150.3c0.4,0,0.7-0.1,0.9-0.4
			s0.3-0.6,0.3-1.1c0-0.4-0.1-0.7-0.3-1s-0.5-0.4-0.9-0.4c-0.4,0-0.7,0.1-0.9,0.4s-0.4,0.5-0.4,0.8c0,0.5,0.1,0.9,0.4,1.2
			S230.1,150.3,230.5,150.3z"/>
	</g>
	<g>
		<path d="M249.8,179.6l3.2-7h-4.2v-1.5h6.1v1.1l-3.2,7.4H249.8z"/>
	</g>
	<g>
		<path d="M266.4,212c0.8,0,1.5,0.2,2,0.6s0.8,0.9,0.8,1.5c0,0.4-0.1,0.8-0.4,1.2s-0.6,0.6-1.2,0.9c0.6,0.3,1.1,0.7,1.4,1.1
			s0.4,0.8,0.4,1.2c0,0.7-0.3,1.3-0.8,1.7s-1.3,0.6-2.2,0.6c-0.9,0-1.7-0.2-2.2-0.6s-0.8-1-0.8-1.7c0-0.5,0.1-0.9,0.4-1.3
			s0.7-0.7,1.3-1c-0.5-0.3-0.8-0.6-1.1-1s-0.3-0.7-0.3-1.2c0-0.6,0.3-1.1,0.8-1.5S265.6,212,266.4,212z M265.1,218.4
			c0,0.3,0.1,0.6,0.4,0.8s0.6,0.3,1,0.3c0.4,0,0.8-0.1,1-0.3s0.3-0.4,0.3-0.8c0-0.3-0.1-0.5-0.3-0.7s-0.6-0.5-1.1-0.7
			C265.5,217.3,265.1,217.8,265.1,218.4z M266.4,213.3c-0.3,0-0.6,0.1-0.7,0.2s-0.3,0.4-0.3,0.6c0,0.2,0.1,0.4,0.2,0.6
			s0.4,0.4,0.8,0.6c0.4-0.2,0.7-0.4,0.8-0.6s0.2-0.4,0.2-0.7c0-0.3-0.1-0.5-0.3-0.6S266.7,213.3,266.4,213.3z"/>
	</g>
	<g>
		<path d="M378.9,273.2c0,1.7-0.4,2.9-1.1,3.8s-1.8,1.2-3.2,1.2c-0.5,0-0.9,0-1.2-0.1v-1.5c0.3,0.1,0.7,0.1,1,0.1
			c0.6,0,1.1-0.1,1.5-0.3s0.7-0.5,0.9-0.8s0.3-0.9,0.4-1.6h-0.1c-0.2,0.4-0.5,0.6-0.8,0.8s-0.7,0.2-1.1,0.2c-0.7,0-1.3-0.2-1.8-0.7
			s-0.6-1.1-0.6-2c0-0.9,0.3-1.6,0.8-2.2s1.2-0.8,2.1-0.8c0.6,0,1.2,0.1,1.7,0.4s0.8,0.7,1.1,1.3S378.9,272.4,378.9,273.2z
			 M375.8,270.9c-0.4,0-0.7,0.1-0.9,0.4s-0.3,0.6-0.3,1.1c0,0.4,0.1,0.7,0.3,1s0.5,0.4,0.9,0.4c0.4,0,0.7-0.1,0.9-0.4
			s0.4-0.5,0.4-0.8c0-0.5-0.1-0.9-0.4-1.2S376.2,270.9,375.8,270.9z"/>
	</g>
	<g>
		<path d="M358.5,236.1h-1.8v-5l0-0.8l0-0.9c-0.3,0.3-0.5,0.5-0.6,0.6l-1,0.8l-0.9-1.1l2.8-2.2h1.5V236.1z"/>
		<path d="M366.8,231.9c0,1.5-0.2,2.6-0.7,3.3s-1.2,1.1-2.3,1.1c-1,0-1.7-0.4-2.2-1.1s-0.8-1.8-0.8-3.3c0-1.5,0.2-2.6,0.7-3.3
			s1.2-1.1,2.3-1.1c1,0,1.7,0.4,2.2,1.1S366.8,230.4,366.8,231.9z M362.6,231.9c0,1.1,0.1,1.8,0.3,2.3s0.5,0.7,0.9,0.7
			c0.4,0,0.7-0.2,0.9-0.7s0.3-1.2,0.3-2.3c0-1.1-0.1-1.8-0.3-2.3s-0.5-0.7-0.9-0.7c-0.4,0-0.7,0.2-0.9,0.7S362.6,230.8,362.6,231.9z
			"/>
	</g>
	<g>
		<path d="M344,194.1h-1.8v-5l0-0.8l0-0.9c-0.3,0.3-0.5,0.5-0.6,0.6l-1,0.8l-0.9-1.1l2.8-2.2h1.5V194.1z"/>
		<path d="M350.9,194.1h-1.8v-5l0-0.8l0-0.9c-0.3,0.3-0.5,0.5-0.6,0.6l-1,0.8l-0.9-1.1l2.8-2.2h1.5V194.1z"/>
	</g>
	<g>
		<path d="M329,152.1h-1.8v-5l0-0.8l0-0.9c-0.3,0.3-0.5,0.5-0.6,0.6l-1,0.8l-0.9-1.1l2.8-2.2h1.5V152.1z"/>
		<path d="M337.4,152.1h-6v-1.3l2.2-2.2c0.6-0.7,1.1-1.1,1.2-1.4s0.3-0.5,0.4-0.7s0.1-0.4,0.1-0.7c0-0.3-0.1-0.6-0.3-0.8
			s-0.4-0.3-0.8-0.3c-0.3,0-0.7,0.1-1,0.2s-0.6,0.4-1,0.7l-1-1.2c0.4-0.4,0.8-0.6,1-0.8s0.6-0.3,0.9-0.3s0.7-0.1,1.1-0.1
			c0.5,0,1,0.1,1.4,0.3s0.7,0.5,1,0.8s0.3,0.8,0.3,1.2c0,0.4-0.1,0.8-0.2,1.1s-0.4,0.7-0.6,1.1s-0.8,0.9-1.5,1.6l-1.1,1v0.1h3.7
			V152.1z"/>
	</g>
	<g>
		<path d="M314,109.6h-1.8v-5l0-0.8l0-0.9c-0.3,0.3-0.5,0.5-0.6,0.6l-1,0.8l-0.9-1.1l2.8-2.2h1.5V109.6z"/>
		<path d="M322,103c0,0.5-0.2,1-0.5,1.4s-0.8,0.6-1.4,0.8v0c0.7,0.1,1.2,0.3,1.6,0.6s0.5,0.8,0.5,1.4c0,0.8-0.3,1.5-0.9,1.9
			s-1.5,0.7-2.6,0.7c-0.9,0-1.8-0.2-2.5-0.5v-1.5c0.3,0.2,0.7,0.3,1.1,0.4s0.8,0.2,1.2,0.2c0.6,0,1-0.1,1.3-0.3s0.4-0.5,0.4-1
			c0-0.4-0.2-0.7-0.5-0.9s-0.9-0.3-1.6-0.3h-0.7v-1.4h0.7c0.7,0,1.1-0.1,1.5-0.3s0.5-0.5,0.5-0.9c0-0.6-0.4-1-1.2-1
			c-0.3,0-0.6,0-0.9,0.1s-0.6,0.3-1,0.5l-0.8-1.2c0.8-0.6,1.7-0.8,2.8-0.8c0.9,0,1.6,0.2,2.1,0.5S322,102.3,322,103z"/>
	</g>
	<g>
		<path d="M232.5,59.6h-1.8v-5l0-0.8l0-0.9c-0.3,0.3-0.5,0.5-0.6,0.6l-1,0.8l-0.9-1.1l2.8-2.2h1.5V59.6z"/>
		<path d="M241.1,57.9h-1v1.8h-1.8v-1.8h-3.7v-1.3l3.8-5.5h1.7v5.4h1V57.9z M238.3,56.5V55c0-0.2,0-0.6,0-1.1s0-0.7,0-0.8h0
			c-0.1,0.3-0.3,0.6-0.5,0.9l-1.6,2.4H238.3z"/>
	</g>
	<g>
		<path d="M190,74.6h-1.8v-5l0-0.8l0-0.9c-0.3,0.3-0.5,0.5-0.6,0.6l-1,0.8l-0.9-1.1l2.8-2.2h1.5V74.6z"/>
		<path d="M195.5,69.2c0.8,0,1.5,0.2,2,0.7s0.7,1.1,0.7,1.9c0,1-0.3,1.7-0.9,2.2s-1.4,0.8-2.5,0.8c-1,0-1.7-0.2-2.3-0.5v-1.6
			c0.3,0.2,0.7,0.3,1.1,0.4s0.8,0.2,1.2,0.2c1.1,0,1.7-0.5,1.7-1.4c0-0.9-0.6-1.3-1.7-1.3c-0.2,0-0.4,0-0.7,0.1s-0.5,0.1-0.6,0.1
			l-0.7-0.4l0.3-4.4h4.6v1.5h-3.1l-0.2,1.7l0.2,0C194.9,69.2,195.2,69.2,195.5,69.2z"/>
	</g>
	<g>
		<path d="M147.5,89.6h-1.8v-5l0-0.8l0-0.9c-0.3,0.3-0.5,0.5-0.6,0.6l-1,0.8l-0.9-1.1l2.8-2.2h1.5V89.6z"/>
		<path d="M149.8,86c0-1.7,0.4-3,1.1-3.8s1.8-1.2,3.2-1.2c0.5,0,0.9,0,1.1,0.1v1.4c-0.3-0.1-0.7-0.1-1-0.1c-0.6,0-1.1,0.1-1.5,0.3
			s-0.7,0.5-0.9,0.8s-0.3,0.9-0.3,1.6h0.1c0.4-0.7,1-1,1.9-1c0.8,0,1.4,0.2,1.8,0.7s0.7,1.1,0.7,2c0,0.9-0.3,1.6-0.8,2.2
			s-1.2,0.8-2.1,0.8c-0.6,0-1.2-0.1-1.7-0.4s-0.8-0.7-1.1-1.3S149.8,86.8,149.8,86z M152.9,88.3c0.4,0,0.7-0.1,0.9-0.4
			s0.3-0.6,0.3-1.1c0-0.4-0.1-0.7-0.3-1s-0.5-0.4-0.9-0.4c-0.4,0-0.7,0.1-0.9,0.4s-0.4,0.5-0.4,0.8c0,0.5,0.1,0.9,0.4,1.2
			S152.6,88.3,152.9,88.3z"/>
	</g>
	<g>
		<path d="M105,104.6h-1.8v-5l0-0.8l0-0.9c-0.3,0.3-0.5,0.5-0.6,0.6l-1,0.8l-0.9-1.1l2.8-2.2h1.5V104.6z"/>
		<path d="M108.2,104.6l3.2-7h-4.2v-1.5h6.1v1.1l-3.2,7.4H108.2z"/>
	</g>
	<g>
		<path d="M75.5,163.1h-1.8v-5l0-0.8l0-0.9c-0.3,0.3-0.5,0.5-0.6,0.6l-1,0.8l-0.9-1.1l2.8-2.2h1.5V163.1z"/>
		<path d="M80.8,154.5c0.8,0,1.5,0.2,2,0.6s0.8,0.9,0.8,1.5c0,0.4-0.1,0.8-0.4,1.2s-0.6,0.6-1.2,0.9c0.6,0.3,1.1,0.7,1.4,1.1
			s0.4,0.8,0.4,1.2c0,0.7-0.3,1.3-0.8,1.7s-1.3,0.6-2.2,0.6c-0.9,0-1.7-0.2-2.2-0.6s-0.8-1-0.8-1.7c0-0.5,0.1-0.9,0.4-1.3
			s0.7-0.7,1.3-1c-0.5-0.3-0.8-0.6-1.1-1s-0.3-0.7-0.3-1.2c0-0.6,0.3-1.1,0.8-1.5S80,154.5,80.8,154.5z M79.5,160.9
			c0,0.3,0.1,0.6,0.4,0.8s0.6,0.3,1,0.3c0.4,0,0.8-0.1,1-0.3s0.3-0.4,0.3-0.8c0-0.3-0.1-0.5-0.3-0.7s-0.6-0.5-1.1-0.7
			C79.9,159.8,79.5,160.3,79.5,160.9z M80.8,155.8c-0.3,0-0.6,0.1-0.7,0.2s-0.3,0.4-0.3,0.6c0,0.2,0.1,0.4,0.2,0.6s0.4,0.4,0.8,0.6
			c0.4-0.2,0.7-0.4,0.8-0.6s0.2-0.4,0.2-0.7c0-0.3-0.1-0.5-0.3-0.6S81.1,155.8,80.8,155.8z"/>
	</g>
	<g>
		<path d="M90.5,206.1h-1.8v-5l0-0.8l0-0.9c-0.3,0.3-0.5,0.5-0.6,0.6l-1,0.8l-0.9-1.1l2.8-2.2h1.5V206.1z"/>
		<path d="M98.8,201.2c0,1.7-0.4,2.9-1.1,3.8s-1.8,1.2-3.2,1.2c-0.5,0-0.9,0-1.2-0.1v-1.5c0.3,0.1,0.7,0.1,1,0.1
			c0.6,0,1.1-0.1,1.5-0.3s0.7-0.5,0.9-0.8s0.3-0.9,0.4-1.6h-0.1c-0.2,0.4-0.5,0.6-0.8,0.8s-0.7,0.2-1.1,0.2c-0.7,0-1.3-0.2-1.8-0.7
			s-0.6-1.1-0.6-2c0-0.9,0.3-1.6,0.8-2.2s1.2-0.8,2.1-0.8c0.6,0,1.2,0.1,1.7,0.4s0.8,0.7,1.1,1.3S98.8,200.4,98.8,201.2z
			 M95.7,198.9c-0.4,0-0.7,0.1-0.9,0.4s-0.3,0.6-0.3,1.1c0,0.4,0.1,0.7,0.3,1s0.5,0.4,0.9,0.4c0.4,0,0.7-0.1,0.9-0.4
			s0.4-0.5,0.4-0.8c0-0.5-0.1-0.9-0.4-1.2S96.1,198.9,95.7,198.9z"/>
	</g>
	<g>
		<path d="M106.5,246.6h-6v-1.3l2.2-2.2c0.6-0.7,1.1-1.1,1.2-1.4s0.3-0.5,0.4-0.7s0.1-0.4,0.1-0.7c0-0.3-0.1-0.6-0.3-0.8
			s-0.4-0.3-0.8-0.3c-0.3,0-0.7,0.1-1,0.2s-0.6,0.4-1,0.7l-1-1.2c0.4-0.4,0.8-0.6,1-0.8s0.6-0.3,0.9-0.3s0.7-0.1,1.1-0.1
			c0.5,0,1,0.1,1.4,0.3s0.7,0.5,1,0.8s0.3,0.8,0.3,1.2c0,0.4-0.1,0.8-0.2,1.1s-0.4,0.7-0.6,1.1s-0.8,0.9-1.5,1.6l-1.1,1v0.1h3.7
			V246.6z"/>
		<path d="M113.3,242.4c0,1.5-0.2,2.6-0.7,3.3s-1.2,1.1-2.3,1.1c-1,0-1.7-0.4-2.2-1.1s-0.8-1.8-0.8-3.3c0-1.5,0.2-2.6,0.7-3.3
			s1.2-1.1,2.3-1.1c1,0,1.7,0.4,2.2,1.1S113.3,240.9,113.3,242.4z M109.1,242.4c0,1.1,0.1,1.8,0.3,2.3s0.5,0.7,0.9,0.7
			c0.4,0,0.7-0.2,0.9-0.7s0.3-1.2,0.3-2.3c0-1.1-0.1-1.8-0.3-2.3s-0.5-0.7-0.9-0.7c-0.4,0-0.7,0.2-0.9,0.7S109.1,241.3,109.1,242.4z
			"/>
	</g>
	<g>
		<path d="M124.7,277.7c0.2,0.6,0.1,1.2-0.2,1.7c-0.3,0.5-0.9,0.9-1.7,1.1c-0.7,0.2-1.4,0.3-2.1,0.2l-0.4-1.3c0.5,0.1,1,0.1,1.3,0.1
			c0.3,0,0.6-0.1,0.9-0.2c0.3-0.1,0.5-0.2,0.7-0.4c0.1-0.2,0.2-0.4,0.1-0.6c0-0.1-0.1-0.2-0.2-0.3c-0.1-0.1-0.2-0.1-0.4-0.2
			s-0.5-0.1-1-0.2c-0.5-0.1-0.8-0.2-1.1-0.3c-0.3-0.1-0.5-0.3-0.7-0.5c-0.2-0.2-0.4-0.5-0.5-0.8c-0.2-0.6-0.1-1.1,0.2-1.6
			c0.3-0.5,0.8-0.8,1.5-1.1c0.4-0.1,0.7-0.2,1.1-0.2c0.3,0,0.7,0,1.1,0l-0.1,1.3c-0.4,0-0.7,0-1,0c-0.3,0-0.5,0.1-0.7,0.1
			c-0.3,0.1-0.5,0.2-0.6,0.4c-0.1,0.2-0.1,0.4-0.1,0.6c0,0.1,0.1,0.2,0.2,0.3c0.1,0.1,0.2,0.1,0.4,0.2c0.2,0,0.5,0.1,1.1,0.2
			c0.7,0.1,1.3,0.3,1.6,0.5C124.3,276.9,124.6,277.3,124.7,277.7z"/>
		<path d="M124.3,272.7c-0.1-0.5,0-0.8,0.5-0.9c0.5-0.2,0.8,0,1,0.4c0.1,0.2,0.1,0.4,0,0.6c-0.1,0.2-0.3,0.3-0.5,0.4
			C124.7,273.3,124.4,273.2,124.3,272.7z M127.8,278.8l-1.4,0.5l-1.7-5.2l1.4-0.5L127.8,278.8z"/>
		<path d="M131,277.9c-0.6,0.2-1.2,0.1-1.7-0.3s-0.9-1-1.2-1.8c-0.3-0.9-0.3-1.6-0.1-2.2c0.2-0.6,0.6-1,1.2-1.2
			c0.7-0.2,1.2-0.1,1.7,0.3l0,0c-0.2-0.4-0.3-0.7-0.4-1l-0.5-1.7l1.4-0.5l2.3,7.2l-1.1,0.3l-0.5-0.6l-0.1,0
			C132.1,277.3,131.7,277.7,131,277.9z M131.1,276.6c0.4-0.1,0.6-0.3,0.7-0.6s0.1-0.7-0.1-1.2l0-0.2c-0.2-0.6-0.4-0.9-0.6-1.1
			c-0.2-0.2-0.6-0.2-1-0.1c-0.3,0.1-0.5,0.3-0.6,0.6c-0.1,0.3-0.1,0.7,0.1,1.3c0.2,0.5,0.4,0.9,0.6,1.1
			C130.5,276.7,130.8,276.7,131.1,276.6z"/>
		<path d="M137,276c-0.6,0.2-1.2,0.1-1.7-0.3s-0.9-1-1.2-1.8c-0.3-0.9-0.3-1.6-0.1-2.2c0.2-0.6,0.6-1,1.2-1.2
			c0.7-0.2,1.2-0.1,1.7,0.3l0,0c-0.2-0.4-0.3-0.7-0.4-1l-0.5-1.7l1.4-0.5l2.3,7.2l-1.1,0.3l-0.5-0.6l-0.1,0
			C138.1,275.3,137.7,275.7,137,276z M137.2,274.7c0.4-0.1,0.6-0.3,0.7-0.6s0.1-0.7-0.1-1.2l0-0.2c-0.2-0.6-0.4-0.9-0.6-1.1
			c-0.2-0.2-0.6-0.2-1-0.1c-0.3,0.1-0.5,0.3-0.6,0.6c-0.1,0.3-0.1,0.7,0.1,1.3c0.2,0.5,0.4,0.9,0.6,1.1
			C136.5,274.7,136.8,274.8,137.2,274.7z"/>
		<path d="M143.8,273.8c-0.8,0.3-1.6,0.2-2.2-0.1c-0.6-0.3-1.1-0.9-1.3-1.7c-0.3-0.9-0.3-1.6,0-2.2c0.3-0.6,0.8-1,1.6-1.3
			c0.7-0.2,1.4-0.2,1.9,0.1s0.9,0.8,1.2,1.5l0.2,0.7l-3.4,1.1c0.1,0.4,0.4,0.7,0.7,0.8c0.3,0.2,0.6,0.2,1,0c0.3-0.1,0.6-0.2,0.9-0.4
			s0.5-0.4,0.8-0.6l0.4,1.1c-0.2,0.2-0.4,0.4-0.7,0.5C144.5,273.5,144.2,273.7,143.8,273.8z M142.2,269.5c-0.3,0.1-0.5,0.3-0.6,0.5
			c-0.1,0.2-0.1,0.5,0,0.9l2-0.6c-0.1-0.3-0.3-0.6-0.5-0.7C142.7,269.4,142.5,269.4,142.2,269.5z"/>
		<path d="M149.9,271.8c-0.6,0.2-1.2,0.1-1.7-0.2l-0.1,0c0.2,0.4,0.3,0.7,0.3,0.7l0.7,2.1l-1.4,0.5l-2.4-7.5l1.2-0.4l0.4,0.6l0.1,0
			c0.2-0.6,0.6-1,1.2-1.2c0.6-0.2,1.2-0.1,1.7,0.2c0.5,0.4,0.9,1,1.2,1.8c0.2,0.6,0.3,1.1,0.2,1.5c0,0.5-0.2,0.8-0.4,1.2
			C150.6,271.5,150.3,271.7,149.9,271.8z M148.1,267.7c-0.4,0.1-0.6,0.3-0.7,0.6c-0.1,0.3-0.1,0.7,0.1,1.1l0,0.2
			c0.2,0.6,0.4,0.9,0.6,1.1c0.2,0.2,0.5,0.2,0.9,0.1c0.6-0.2,0.8-0.8,0.5-1.9c-0.2-0.5-0.4-0.9-0.6-1.1
			C148.7,267.7,148.4,267.6,148.1,267.7z"/>
		<path d="M154.4,270.3l-1.4,0.5l-2.3-7.2l1.4-0.5L154.4,270.3z"/>
		<path d="M159.2,268.7l-0.5-0.6l0,0c-0.1,0.4-0.3,0.7-0.5,0.9c-0.2,0.2-0.5,0.4-0.9,0.5c-0.5,0.2-0.9,0.1-1.3,0
			c-0.4-0.2-0.7-0.6-0.8-1.1c-0.2-0.6-0.1-1,0.2-1.4c0.3-0.4,0.8-0.7,1.6-1l0.9-0.3l-0.1-0.2c-0.2-0.5-0.5-0.7-1.1-0.5
			c-0.4,0.1-0.9,0.4-1.3,0.8l-0.8-0.8c0.5-0.5,1.1-0.9,1.8-1.1c0.7-0.2,1.3-0.2,1.8-0.1c0.5,0.2,0.8,0.6,1,1.2l1.1,3.5L159.2,268.7z
			 M158,266.5l-0.5,0.2c-0.4,0.1-0.7,0.3-0.8,0.5c-0.2,0.2-0.2,0.4-0.1,0.7c0.1,0.4,0.4,0.5,0.9,0.4c0.3-0.1,0.6-0.3,0.7-0.5
			c0.1-0.3,0.2-0.5,0.1-0.8L158,266.5z"/>
		<path d="M163.4,267.5c-0.6,0.2-1.2,0.1-1.7-0.3c-0.5-0.4-0.9-1-1.2-1.8c-0.3-0.9-0.3-1.6-0.1-2.2c0.2-0.6,0.6-1,1.2-1.2
			c0.7-0.2,1.2-0.1,1.7,0.3l0,0c-0.2-0.4-0.3-0.7-0.4-1l-0.5-1.7l1.4-0.5l2.3,7.2l-1.1,0.3l-0.5-0.6l-0.1,0
			C164.4,266.9,164,267.3,163.4,267.5z M163.5,266.2c0.4-0.1,0.6-0.3,0.7-0.6c0.1-0.3,0.1-0.7-0.1-1.2l0-0.2
			c-0.2-0.6-0.4-0.9-0.6-1.1c-0.2-0.2-0.6-0.2-1-0.1c-0.3,0.1-0.5,0.3-0.6,0.6c-0.1,0.3-0.1,0.7,0.1,1.3c0.2,0.5,0.4,0.9,0.6,1.1
			C162.9,266.3,163.2,266.3,163.5,266.2z"/>
		<path d="M170.8,263.3c0.2,0.5,0.1,1-0.2,1.4c-0.3,0.4-0.8,0.7-1.5,1c-0.4,0.1-0.7,0.2-1,0.2c-0.3,0-0.6,0-0.8,0l-0.4-1.2
			c0.3,0,0.6,0,1,0c0.4,0,0.7-0.1,0.9-0.2c0.5-0.2,0.7-0.4,0.6-0.7c0-0.1-0.1-0.2-0.2-0.2c-0.1,0-0.2-0.1-0.4-0.1
			c-0.2,0-0.5-0.1-0.8-0.1c-0.5,0-0.8-0.1-1-0.2c-0.2-0.1-0.4-0.2-0.6-0.4c-0.1-0.2-0.3-0.4-0.3-0.6c-0.1-0.5-0.1-0.9,0.2-1.2
			c0.3-0.4,0.7-0.7,1.4-0.9c0.6-0.2,1.3-0.3,2-0.2l-0.1,1.2c-0.3,0-0.6,0-0.8,0c-0.2,0-0.5,0-0.7,0.1c-0.4,0.1-0.6,0.3-0.5,0.5
			c0,0.1,0.1,0.2,0.3,0.3c0.2,0,0.5,0.1,1,0.1c0.5,0,0.8,0.1,1,0.2c0.2,0.1,0.4,0.2,0.6,0.4C170.6,262.9,170.8,263.1,170.8,263.3z"
			/>
		<path d="M174.8,263.8c-0.8,0.3-1.6,0.2-2.2-0.1c-0.6-0.3-1.1-0.9-1.3-1.7c-0.3-0.9-0.3-1.6,0-2.2c0.3-0.6,0.8-1,1.6-1.3
			c0.7-0.2,1.4-0.2,1.9,0.1s0.9,0.8,1.2,1.5l0.2,0.7l-3.4,1.1c0.1,0.4,0.4,0.7,0.7,0.8c0.3,0.2,0.6,0.2,1,0c0.3-0.1,0.6-0.2,0.9-0.4
			s0.5-0.4,0.8-0.6l0.4,1.1c-0.2,0.2-0.4,0.4-0.7,0.5C175.6,263.6,175.2,263.7,174.8,263.8z M173.2,259.5c-0.3,0.1-0.5,0.3-0.6,0.5
			c-0.1,0.2-0.1,0.5,0,0.9l2-0.6c-0.1-0.3-0.3-0.6-0.5-0.7C173.8,259.4,173.5,259.4,173.2,259.5z"/>
		<path d="M179.3,256.5c0.2-0.1,0.4-0.1,0.5-0.1l0.3,1.4c-0.1,0-0.3,0-0.4,0.1c-0.5,0.1-0.8,0.4-0.9,0.7c-0.2,0.3-0.2,0.7-0.1,1.1
			l0.8,2.6l-1.4,0.5l-1.7-5.2l1.1-0.3l0.5,0.8l0.1,0c0.1-0.3,0.2-0.6,0.4-0.9C178.7,256.8,179,256.6,179.3,256.5z"/>
	</g>
	<g>
		<path d="M118.3,139.4c0.2,0.6,0.1,1.2-0.2,1.7s-0.9,0.9-1.7,1.1c-0.7,0.2-1.4,0.3-2.1,0.2l-0.4-1.3c0.5,0.1,1,0.1,1.3,0.1
			c0.3,0,0.6-0.1,0.9-0.2c0.3-0.1,0.5-0.2,0.7-0.4c0.1-0.2,0.2-0.4,0.1-0.6c0-0.1-0.1-0.2-0.2-0.3c-0.1-0.1-0.2-0.1-0.4-0.2
			c-0.2,0-0.5-0.1-1-0.2c-0.5-0.1-0.8-0.2-1.1-0.3c-0.3-0.1-0.5-0.3-0.7-0.5c-0.2-0.2-0.4-0.5-0.5-0.8c-0.2-0.6-0.1-1.1,0.2-1.6
			s0.8-0.8,1.5-1.1c0.4-0.1,0.7-0.2,1.1-0.2s0.7,0,1.1,0l-0.1,1.3c-0.4,0-0.7,0-1,0c-0.3,0-0.5,0.1-0.7,0.1
			c-0.3,0.1-0.5,0.2-0.6,0.4c-0.1,0.2-0.1,0.4-0.1,0.6c0,0.1,0.1,0.2,0.2,0.3c0.1,0.1,0.2,0.1,0.4,0.2c0.2,0,0.5,0.1,1.1,0.2
			c0.7,0.1,1.3,0.3,1.6,0.5C117.9,138.6,118.1,139,118.3,139.4z"/>
		<path d="M117.8,134.4c-0.1-0.5,0-0.8,0.5-0.9s0.8,0,1,0.4c0.1,0.2,0.1,0.4,0,0.6c-0.1,0.2-0.3,0.3-0.5,0.4
			C118.3,135,118,134.9,117.8,134.4z M121.4,140.5l-1.4,0.5l-1.7-5.2l1.4-0.5L121.4,140.5z"/>
		<path d="M124.6,139.6c-0.6,0.2-1.2,0.1-1.7-0.3c-0.5-0.4-0.9-1-1.2-1.8c-0.3-0.9-0.3-1.6-0.1-2.2c0.2-0.6,0.6-1,1.2-1.2
			c0.7-0.2,1.2-0.1,1.7,0.3l0,0c-0.2-0.4-0.3-0.7-0.4-1l-0.5-1.7l1.4-0.5l2.3,7.2l-1.1,0.3l-0.5-0.6l-0.1,0
			C125.6,138.9,125.2,139.4,124.6,139.6z M124.7,138.3c0.4-0.1,0.6-0.3,0.7-0.6s0.1-0.7-0.1-1.2l0-0.2c-0.2-0.6-0.4-0.9-0.6-1.1
			c-0.2-0.2-0.6-0.2-1-0.1c-0.3,0.1-0.5,0.3-0.6,0.6c-0.1,0.3-0.1,0.7,0.1,1.3s0.4,0.9,0.6,1.1C124.1,138.3,124.4,138.4,124.7,138.3
			z"/>
		<path d="M130.6,137.6c-0.6,0.2-1.2,0.1-1.7-0.3c-0.5-0.4-0.9-1-1.2-1.8c-0.3-0.9-0.3-1.6-0.1-2.2c0.2-0.6,0.6-1,1.2-1.2
			c0.7-0.2,1.2-0.1,1.7,0.3l0,0c-0.2-0.4-0.3-0.7-0.4-1l-0.5-1.7l1.4-0.5l2.3,7.2l-1.1,0.3l-0.5-0.6l-0.1,0
			C131.7,137,131.3,137.4,130.6,137.6z M130.7,136.3c0.4-0.1,0.6-0.3,0.7-0.6s0.1-0.7-0.1-1.2l0-0.2c-0.2-0.6-0.4-0.9-0.6-1.1
			c-0.2-0.2-0.6-0.2-1-0.1c-0.3,0.1-0.5,0.3-0.6,0.6c-0.1,0.3-0.1,0.7,0.1,1.3c0.2,0.5,0.4,0.9,0.6,1.1
			C130.1,136.4,130.4,136.5,130.7,136.3z"/>
		<path d="M137.3,135.5c-0.8,0.3-1.6,0.2-2.2-0.1c-0.6-0.3-1.1-0.9-1.3-1.7c-0.3-0.9-0.3-1.6,0-2.2c0.3-0.6,0.8-1,1.6-1.3
			c0.7-0.2,1.4-0.2,1.9,0.1c0.5,0.3,0.9,0.8,1.2,1.5l0.2,0.7l-3.4,1.1c0.1,0.4,0.4,0.7,0.7,0.8c0.3,0.2,0.6,0.2,1,0
			c0.3-0.1,0.6-0.2,0.9-0.4s0.5-0.4,0.8-0.6l0.4,1.1c-0.2,0.2-0.4,0.4-0.7,0.5C138.1,135.2,137.7,135.3,137.3,135.5z M135.7,131.2
			c-0.3,0.1-0.5,0.3-0.6,0.5c-0.1,0.2-0.1,0.5,0,0.9l2-0.6c-0.1-0.3-0.3-0.6-0.5-0.7C136.3,131.1,136,131.1,135.7,131.2z"/>
		<path d="M143.5,133.5c-0.6,0.2-1.2,0.1-1.7-0.2l-0.1,0c0.2,0.4,0.3,0.7,0.3,0.7l0.7,2.1l-1.4,0.5l-2.4-7.5l1.2-0.4l0.4,0.6l0.1,0
			c0.2-0.6,0.6-1,1.2-1.2c0.6-0.2,1.2-0.1,1.7,0.2c0.5,0.4,0.9,1,1.2,1.8c0.2,0.6,0.3,1.1,0.2,1.5c0,0.5-0.2,0.8-0.4,1.2
			C144.2,133.2,143.9,133.4,143.5,133.5z M141.7,129.4c-0.4,0.1-0.6,0.3-0.7,0.6c-0.1,0.3-0.1,0.7,0.1,1.1l0,0.2
			c0.2,0.6,0.4,0.9,0.6,1.1c0.2,0.2,0.5,0.2,0.9,0.1c0.6-0.2,0.8-0.8,0.5-1.9c-0.2-0.5-0.4-0.9-0.6-1.1
			C142.3,129.3,142,129.3,141.7,129.4z"/>
		<path d="M148,131.9l-1.4,0.5l-2.3-7.2l1.4-0.5L148,131.9z"/>
		<path d="M152.8,130.4l-0.5-0.6l0,0c-0.1,0.4-0.3,0.7-0.5,0.9c-0.2,0.2-0.5,0.4-0.9,0.5c-0.5,0.2-0.9,0.1-1.3,0
			c-0.4-0.2-0.7-0.6-0.8-1.1c-0.2-0.6-0.1-1,0.2-1.4c0.3-0.4,0.8-0.7,1.6-1l0.9-0.3l-0.1-0.2c-0.2-0.5-0.5-0.7-1.1-0.5
			c-0.4,0.1-0.9,0.4-1.3,0.8l-0.8-0.8c0.5-0.5,1.1-0.9,1.8-1.1c0.7-0.2,1.3-0.2,1.8-0.1c0.5,0.2,0.8,0.6,1,1.2l1.1,3.5L152.8,130.4z
			 M151.6,128.1l-0.5,0.2c-0.4,0.1-0.7,0.3-0.8,0.5c-0.2,0.2-0.2,0.4-0.1,0.7c0.1,0.4,0.4,0.5,0.9,0.4c0.3-0.1,0.6-0.3,0.7-0.5
			c0.1-0.3,0.2-0.5,0.1-0.8L151.6,128.1z"/>
		<path d="M156.9,129.2c-0.6,0.2-1.2,0.1-1.7-0.3c-0.5-0.4-0.9-1-1.2-1.8c-0.3-0.9-0.3-1.6-0.1-2.2c0.2-0.6,0.6-1,1.2-1.2
			c0.7-0.2,1.2-0.1,1.7,0.3l0,0c-0.2-0.4-0.3-0.7-0.4-1l-0.5-1.7l1.4-0.5l2.3,7.2l-1.1,0.3l-0.5-0.6l-0.1,0
			C158,128.6,157.6,129,156.9,129.2z M157.1,127.9c0.4-0.1,0.6-0.3,0.7-0.6c0.1-0.3,0.1-0.7-0.1-1.2l0-0.2c-0.2-0.6-0.4-0.9-0.6-1.1
			c-0.2-0.2-0.6-0.2-1-0.1c-0.3,0.1-0.5,0.3-0.6,0.6c-0.1,0.3-0.1,0.7,0.1,1.3c0.2,0.5,0.4,0.9,0.6,1.1
			C156.4,128,156.7,128,157.1,127.9z"/>
		<path d="M164.4,125c0.2,0.5,0.1,1-0.2,1.4c-0.3,0.4-0.8,0.7-1.5,1c-0.4,0.1-0.7,0.2-1,0.2c-0.3,0-0.6,0-0.8,0l-0.4-1.2
			c0.3,0,0.6,0,1,0s0.7-0.1,0.9-0.2c0.5-0.2,0.7-0.4,0.6-0.7c0-0.1-0.1-0.2-0.2-0.2c-0.1,0-0.2-0.1-0.4-0.1c-0.2,0-0.5-0.1-0.8-0.1
			c-0.5,0-0.8-0.1-1-0.2c-0.2-0.1-0.4-0.2-0.6-0.4c-0.1-0.2-0.3-0.4-0.3-0.6c-0.1-0.5-0.1-0.9,0.2-1.2c0.3-0.4,0.7-0.7,1.4-0.9
			c0.6-0.2,1.3-0.3,2-0.2l-0.1,1.2c-0.3,0-0.6,0-0.8,0c-0.2,0-0.5,0-0.7,0.1c-0.4,0.1-0.6,0.3-0.5,0.5c0,0.1,0.1,0.2,0.3,0.3
			c0.2,0,0.5,0.1,1,0.1c0.5,0,0.8,0.1,1,0.2c0.2,0.1,0.4,0.2,0.6,0.4C164.2,124.5,164.3,124.7,164.4,125z"/>
		<path d="M168.4,125.5c-0.8,0.3-1.6,0.2-2.2-0.1c-0.6-0.3-1.1-0.9-1.3-1.7c-0.3-0.9-0.3-1.6,0-2.2c0.3-0.6,0.8-1,1.6-1.3
			c0.7-0.2,1.4-0.2,1.9,0.1s0.9,0.8,1.2,1.5l0.2,0.7l-3.4,1.1c0.1,0.4,0.4,0.7,0.7,0.8c0.3,0.2,0.6,0.2,1,0c0.3-0.1,0.6-0.2,0.9-0.4
			c0.3-0.2,0.5-0.4,0.8-0.6l0.4,1.1c-0.2,0.2-0.4,0.4-0.7,0.5C169.1,125.2,168.8,125.4,168.4,125.5z M166.8,121.2
			c-0.3,0.1-0.5,0.3-0.6,0.5c-0.1,0.2-0.1,0.5,0,0.9l2-0.6c-0.1-0.3-0.3-0.6-0.5-0.7C167.4,121.1,167.1,121.1,166.8,121.2z"/>
		<path d="M172.8,118.2c0.2-0.1,0.4-0.1,0.5-0.1l0.3,1.4c-0.1,0-0.3,0-0.4,0.1c-0.5,0.1-0.8,0.4-0.9,0.7c-0.2,0.3-0.2,0.7-0.1,1.1
			l0.8,2.6l-1.4,0.5l-1.7-5.2l1.1-0.3l0.5,0.8l0.1,0c0.1-0.3,0.2-0.6,0.4-0.9C172.3,118.4,172.5,118.3,172.8,118.2z"/>
	</g>
	<g>
		<path d="M266.6,315.8c0.2,0.6,0.1,1.2-0.2,1.7c-0.3,0.5-0.9,0.9-1.7,1.1c-0.7,0.2-1.4,0.3-2.1,0.2l-0.4-1.3c0.5,0.1,1,0.1,1.3,0.1
			c0.3,0,0.6-0.1,0.9-0.2c0.3-0.1,0.5-0.2,0.7-0.4c0.1-0.2,0.2-0.4,0.1-0.6c0-0.1-0.1-0.2-0.2-0.3c-0.1-0.1-0.2-0.1-0.4-0.2
			c-0.2,0-0.5-0.1-1-0.2c-0.5-0.1-0.8-0.2-1.1-0.3c-0.3-0.1-0.5-0.3-0.7-0.5s-0.4-0.5-0.5-0.8c-0.2-0.6-0.1-1.1,0.2-1.6
			c0.3-0.5,0.8-0.8,1.5-1.1c0.4-0.1,0.7-0.2,1.1-0.2c0.3,0,0.7,0,1.1,0l-0.1,1.3c-0.4,0-0.7,0-1,0c-0.3,0-0.5,0.1-0.7,0.1
			c-0.3,0.1-0.5,0.2-0.6,0.4c-0.1,0.2-0.1,0.4-0.1,0.6c0,0.1,0.1,0.2,0.2,0.3c0.1,0.1,0.2,0.1,0.4,0.2c0.2,0,0.5,0.1,1.1,0.2
			c0.7,0.1,1.3,0.3,1.6,0.5C266.2,315.1,266.4,315.4,266.6,315.8z"/>
		<path d="M266.1,310.9c-0.1-0.5,0-0.8,0.5-0.9c0.5-0.2,0.8,0,1,0.4c0.1,0.2,0.1,0.4,0,0.6c-0.1,0.2-0.3,0.3-0.5,0.4
			C266.6,311.5,266.3,311.3,266.1,310.9z M269.7,316.9l-1.4,0.5l-1.7-5.2l1.4-0.5L269.7,316.9z"/>
		<path d="M272.9,316c-0.6,0.2-1.2,0.1-1.7-0.3c-0.5-0.4-0.9-1-1.2-1.8c-0.3-0.9-0.3-1.6-0.1-2.2c0.2-0.6,0.6-1,1.2-1.2
			c0.7-0.2,1.2-0.1,1.7,0.3l0,0c-0.2-0.4-0.3-0.7-0.4-1l-0.5-1.7l1.4-0.5l2.3,7.2l-1.1,0.3l-0.5-0.6l-0.1,0
			C273.9,315.4,273.5,315.8,272.9,316z M273,314.7c0.4-0.1,0.6-0.3,0.7-0.6s0.1-0.7-0.1-1.2l0-0.2c-0.2-0.6-0.4-0.9-0.6-1.1
			c-0.2-0.2-0.6-0.2-1-0.1c-0.3,0.1-0.5,0.3-0.6,0.6c-0.1,0.3-0.1,0.7,0.1,1.3c0.2,0.5,0.4,0.9,0.6,1.1
			C272.4,314.8,272.7,314.8,273,314.7z"/>
		<path d="M278.9,314.1c-0.6,0.2-1.2,0.1-1.7-0.3c-0.5-0.4-0.9-1-1.2-1.8c-0.3-0.9-0.3-1.6-0.1-2.2c0.2-0.6,0.6-1,1.2-1.2
			c0.7-0.2,1.2-0.1,1.7,0.3l0,0c-0.2-0.4-0.3-0.7-0.4-1l-0.5-1.7l1.4-0.5l2.3,7.2l-1.1,0.3l-0.5-0.6l-0.1,0
			C280,313.5,279.5,313.9,278.9,314.1z M279,312.8c0.4-0.1,0.6-0.3,0.7-0.6s0.1-0.7-0.1-1.2l0-0.2c-0.2-0.6-0.4-0.9-0.6-1.1
			c-0.2-0.2-0.6-0.2-1-0.1c-0.3,0.1-0.5,0.3-0.6,0.6c-0.1,0.3-0.1,0.7,0.1,1.3c0.2,0.5,0.4,0.9,0.6,1.1
			C278.4,312.8,278.7,312.9,279,312.8z"/>
		<path d="M285.6,311.9c-0.8,0.3-1.6,0.2-2.2-0.1c-0.6-0.3-1.1-0.9-1.3-1.7c-0.3-0.9-0.3-1.6,0-2.2c0.3-0.6,0.8-1,1.6-1.3
			c0.7-0.2,1.4-0.2,1.9,0.1s0.9,0.8,1.2,1.5l0.2,0.7l-3.4,1.1c0.1,0.4,0.4,0.7,0.7,0.8s0.6,0.2,1,0c0.3-0.1,0.6-0.2,0.9-0.4
			s0.5-0.4,0.8-0.6l0.4,1.1c-0.2,0.2-0.4,0.4-0.7,0.5C286.4,311.7,286,311.8,285.6,311.9z M284,307.6c-0.3,0.1-0.5,0.3-0.6,0.5
			c-0.1,0.2-0.1,0.5,0,0.9l2-0.6c-0.1-0.3-0.3-0.6-0.5-0.7C284.6,307.5,284.3,307.5,284,307.6z"/>
		<path d="M291.7,310c-0.6,0.2-1.2,0.1-1.7-0.2l-0.1,0c0.2,0.4,0.3,0.7,0.3,0.7l0.7,2.1l-1.4,0.5l-2.4-7.5l1.2-0.4l0.4,0.6l0.1,0
			c0.2-0.6,0.6-1,1.2-1.2c0.6-0.2,1.2-0.1,1.7,0.2c0.5,0.4,0.9,1,1.2,1.8c0.2,0.6,0.3,1.1,0.2,1.5c0,0.5-0.2,0.8-0.4,1.2
			C292.5,309.6,292.2,309.8,291.7,310z M290,305.8c-0.4,0.1-0.6,0.3-0.7,0.6c-0.1,0.3-0.1,0.7,0.1,1.1l0,0.2
			c0.2,0.6,0.4,0.9,0.6,1.1c0.2,0.2,0.5,0.2,0.9,0.1c0.6-0.2,0.8-0.8,0.5-1.9c-0.2-0.5-0.4-0.9-0.6-1.1
			C290.6,305.8,290.3,305.7,290,305.8z"/>
		<path d="M296.3,308.4l-1.4,0.5l-2.3-7.2l1.4-0.5L296.3,308.4z"/>
		<path d="M301.1,306.9l-0.5-0.6l0,0c-0.1,0.4-0.3,0.7-0.5,0.9c-0.2,0.2-0.5,0.4-0.9,0.5c-0.5,0.2-0.9,0.1-1.3,0
			c-0.4-0.2-0.7-0.6-0.8-1.1c-0.2-0.6-0.1-1,0.2-1.4c0.3-0.4,0.8-0.7,1.6-1l0.9-0.3l-0.1-0.2c-0.2-0.5-0.5-0.7-1.1-0.5
			c-0.4,0.1-0.9,0.4-1.3,0.8l-0.8-0.8c0.5-0.5,1.1-0.9,1.8-1.1c0.7-0.2,1.3-0.2,1.8-0.1c0.5,0.2,0.8,0.6,1,1.2l1.1,3.5L301.1,306.9z
			 M299.9,304.6l-0.5,0.2c-0.4,0.1-0.7,0.3-0.8,0.5c-0.2,0.2-0.2,0.4-0.1,0.7c0.1,0.4,0.4,0.5,0.9,0.4c0.3-0.1,0.6-0.3,0.7-0.5
			c0.1-0.3,0.2-0.5,0.1-0.8L299.9,304.6z"/>
		<path d="M305.2,305.6c-0.6,0.2-1.2,0.1-1.7-0.3s-0.9-1-1.2-1.8c-0.3-0.9-0.3-1.6-0.1-2.2c0.2-0.6,0.6-1,1.2-1.2
			c0.7-0.2,1.2-0.1,1.7,0.3l0,0c-0.2-0.4-0.3-0.7-0.4-1l-0.5-1.7l1.4-0.5l2.3,7.2L307,305l-0.5-0.6l-0.1,0
			C306.3,305,305.9,305.4,305.2,305.6z M305.4,304.4c0.4-0.1,0.6-0.3,0.7-0.6c0.1-0.3,0.1-0.7-0.1-1.2l0-0.2
			c-0.2-0.6-0.4-0.9-0.6-1.1c-0.2-0.2-0.6-0.2-1-0.1c-0.3,0.1-0.5,0.3-0.6,0.6c-0.1,0.3-0.1,0.7,0.1,1.3c0.2,0.5,0.4,0.9,0.6,1.1
			C304.7,304.4,305,304.5,305.4,304.4z"/>
		<path d="M312.7,301.4c0.2,0.5,0.1,1-0.2,1.4c-0.3,0.4-0.8,0.7-1.5,1c-0.4,0.1-0.7,0.2-1,0.2c-0.3,0-0.6,0-0.8,0l-0.4-1.2
			c0.3,0,0.6,0,1,0c0.4,0,0.7-0.1,0.9-0.2c0.5-0.2,0.7-0.4,0.6-0.7c0-0.1-0.1-0.2-0.2-0.2c-0.1,0-0.2-0.1-0.4-0.1
			c-0.2,0-0.5-0.1-0.8-0.1c-0.5,0-0.8-0.1-1-0.2c-0.2-0.1-0.4-0.2-0.6-0.4c-0.1-0.2-0.3-0.4-0.3-0.6c-0.1-0.5-0.1-0.9,0.2-1.2
			c0.3-0.4,0.7-0.7,1.4-0.9c0.6-0.2,1.3-0.3,2-0.2l-0.1,1.2c-0.3,0-0.6,0-0.8,0c-0.2,0-0.5,0-0.7,0.1c-0.4,0.1-0.6,0.3-0.5,0.5
			c0,0.1,0.1,0.2,0.3,0.3c0.2,0,0.5,0.1,1,0.1c0.5,0,0.8,0.1,1,0.2c0.2,0.1,0.4,0.2,0.6,0.4C312.5,301,312.6,301.2,312.7,301.4z"/>
		<path d="M316.7,302c-0.8,0.3-1.6,0.2-2.2-0.1c-0.6-0.3-1.1-0.9-1.3-1.7c-0.3-0.9-0.3-1.6,0-2.2c0.3-0.6,0.8-1,1.6-1.3
			c0.7-0.2,1.4-0.2,1.9,0.1s0.9,0.8,1.2,1.5l0.2,0.7l-3.4,1.1c0.1,0.4,0.4,0.7,0.7,0.8c0.3,0.2,0.6,0.2,1,0c0.3-0.1,0.6-0.2,0.9-0.4
			c0.3-0.2,0.5-0.4,0.8-0.6l0.4,1.1c-0.2,0.2-0.4,0.4-0.7,0.5C317.4,301.7,317.1,301.8,316.7,302z M315.1,297.6
			c-0.3,0.1-0.5,0.3-0.6,0.5c-0.1,0.2-0.1,0.5,0,0.9l2-0.6c-0.1-0.3-0.3-0.6-0.5-0.7C315.7,297.6,315.4,297.6,315.1,297.6z"/>
		<path d="M321.1,294.6c0.2-0.1,0.4-0.1,0.5-0.1l0.3,1.4c-0.1,0-0.3,0-0.4,0.1c-0.5,0.1-0.8,0.4-0.9,0.7c-0.2,0.3-0.2,0.7-0.1,1.1
			l0.8,2.6l-1.4,0.5l-1.7-5.2l1.1-0.3l0.5,0.8l0.1,0c0.1-0.3,0.2-0.6,0.4-0.9C320.5,294.9,320.8,294.7,321.1,294.6z"/>
	</g>
</g>
</svg>
