<?xml version="1.0" encoding="utf-8"?>
<!-- Generator: Adobe Illustrator 17.1.0, SVG Export Plug-In . SVG Version: 6.00 Build 0)  -->
<!DOCTYPE svg PUBLIC "-//W3C//DTD SVG 1.1//EN" "http://www.w3.org/Graphics/SVG/1.1/DTD/svg11.dtd">
<svg version="1.1" id="Layer_1" xmlns="http://www.w3.org/2000/svg" xmlns:xlink="http://www.w3.org/1999/xlink" x="0px" y="0px"
	 viewBox="0 0 46 43.6" enable-background="new 0 0 46 43.6" xml:space="preserve">
<g>
	<path d="M63.5-13.8c4.2,0,7.7-4.2,7.7-9.3c0-5.2-1.1-9.3-7.7-9.3c-6.6,0-7.7,4.2-7.7,9.3C55.8-18,59.3-13.8,63.5-13.8L63.5-13.8z"
		/>
	<path d="M78,0c-0.1-9-1.3-11.5-10.3-13.2c0,0-1.3,1.6-4.2,1.6c-2.9,0-4.2-1.6-4.2-1.6C50.4-11.5,49.2-9,49-0.3c0,0.7,0,0.8,0,0.7
		c0,0.2,0,0.4,0,0.9c0,0,2.1,4.3,14.5,4.3C75.9,5.7,78,1.4,78,1.4c0-0.3,0-0.5,0-0.7C78,0.7,78,0.6,78,0L78,0z"/>
</g>
<g>
	<path d="M71.3,47.5c-1.7,0-3.1,1.4-3.1,3.1c0,1.7,1.4,3.1,3.1,3.1c1.7,0,3.1-1.4,3.1-3.1C74.4,48.9,73,47.5,71.3,47.5L71.3,47.5z
		 M62,22.6v3.1h3.1l5.6,11.8l-2.2,3.7c-0.2,0.5-0.3,1.1-0.3,1.5c0,1.7,1.4,3.1,3.1,3.1h18.6v-3.1h-18c-0.2,0-0.3-0.2-0.3-0.3v-0.2
		l1.4-2.6h11.5c1.2,0,2.2-0.6,2.6-1.6l5.6-10.1c0.3-0.3,0.3-0.5,0.3-0.8c0-0.9-0.6-1.5-1.6-1.5h-23l-1.4-3.1H62z M86.8,47.5
		c-1.7,0-3.1,1.4-3.1,3.1c0,1.7,1.4,3.1,3.1,3.1c1.7,0,3.1-1.4,3.1-3.1C89.9,48.9,88.5,47.5,86.8,47.5L86.8,47.5z M86.8,47.5"/>
</g>
<g>
	<path d="M43.2-35.9c-0.1-0.5-0.4-1-0.6-1.4c-2.2-5.4-7.1-7.3-11.1-7.3c-5.3,0-11.1,3.5-11.9,10.8v1.5c0,0.1,0,0.6,0.1,0.9
		c0.4,3.5,3.2,7.2,5.2,10.7c2.2,3.7,4.5,7.4,6.8,11.1c1.4-2.4,2.8-4.8,4.2-7.1c0.4-0.7,0.8-1.4,1.2-2c0.2-0.4,0.7-0.9,0.9-1.3
		c2.2-4,5.8-8.1,5.8-12.1v-1.6C43.8-34.2,43.2-35.8,43.2-35.9L43.2-35.9z M31.7-28.4c-1.6,0-3.3-0.8-4.1-2.9c-0.1-0.3-0.1-1-0.1-1.1
		v-1c0-2.7,2.3-4,4.3-4c2.5,0,4.4,2,4.4,4.5C36.2-30.4,34.1-28.4,31.7-28.4L31.7-28.4z M31.7-28.4"/>
</g>
<path fill="#FFFFFF" d="M-24.3,73.7h2.6v18.7c0,0.6,0.2,1.2,0.7,1.6c0.4,0.4,1,0.7,1.6,0.7c0.6,0,1.1-0.2,1.6-0.7
	c0.5-0.5,0.7-1,0.7-1.6V54.1c0-0.3-0.1-0.6-0.3-0.8c-0.2-0.2-0.5-0.3-0.8-0.3h-0.8c-1.6,0-2.9,0.6-4.1,1.7c-1.1,1.1-1.7,2.5-1.7,4.1
	v14.4c0,0.2,0.1,0.3,0.2,0.4C-24.6,73.6-24.5,73.7-24.3,73.7L-24.3,73.7z M-24.3,73.7"/>
<g>
	<path fill="#FFFFFF" d="M-27.5,137.5c4.2,0,7.7-4.2,7.7-9.3c0-5.2-1.1-9.3-7.7-9.3c-6.6,0-7.7,4.2-7.7,9.3
		C-35.2,133.3-31.7,137.5-27.5,137.5L-27.5,137.5z"/>
	<path fill="#FFFFFF" d="M-13,151.4c-0.1-9-1.3-11.5-10.3-13.2c0,0-1.3,1.6-4.2,1.6c-2.9,0-4.2-1.6-4.2-1.6
		c-8.9,1.6-10.1,4.1-10.3,12.9c0,0.7,0,0.8,0,0.7c0,0.2,0,0.4,0,0.9c0,0,2.1,4.3,14.5,4.3c12.4,0,14.5-4.3,14.5-4.3
		c0-0.3,0-0.5,0-0.7C-13,152.1-13,152-13,151.4L-13,151.4z"/>
</g>
<g>
	<path fill="#FFFFFF" d="M16.8,31.1c-1.7,0-3.1,1.4-3.1,3.1c0,1.7,1.4,3.1,3.1,3.1c1.7,0,3.1-1.4,3.1-3.1
		C19.9,32.5,18.5,31.1,16.8,31.1L16.8,31.1z M7.5,6.3v3.1h3.1l5.6,11.8L14,24.9c-0.2,0.5-0.3,1.1-0.3,1.5c0,1.7,1.4,3.1,3.1,3.1
		h18.6v-3.1h-18c-0.2,0-0.3-0.2-0.3-0.3V26l1.4-2.6H30c1.2,0,2.2-0.6,2.6-1.6l5.6-10.1c0.3-0.3,0.3-0.5,0.3-0.8
		c0-0.9-0.6-1.5-1.6-1.5H14l-1.4-3.1H7.5z M32.3,31.1c-1.7,0-3.1,1.4-3.1,3.1c0,1.7,1.4,3.1,3.1,3.1c1.7,0,3.1-1.4,3.1-3.1
		C35.4,32.5,34,31.1,32.3,31.1L32.3,31.1z M32.3,31.1"/>
</g>
<path fill="#FFFFFF" d="M-36.5,67.9v24c0,0.6,0.2,1.2,0.7,1.6c0.4,0.4,1,0.7,1.6,0.7c0.6,0,1.1-0.2,1.6-0.7c0.5-0.5,0.7-1,0.7-1.6
	v-24c0.7-0.2,3.3-2.5,3.3-3.3V55c0-0.3-0.1-0.6-0.3-0.8c-0.2-0.2-0.5-0.3-0.8-0.3c-0.3,0-0.6,0.1-0.8,0.3c-0.2,0.2-0.3,0.5-0.3,0.8
	v7.5c0,0.3-0.1,0.6-0.3,0.8c-0.2,0.2-0.5,0.3-0.8,0.3c-0.3,0-0.6-0.1-0.8-0.3c-0.2-0.2-0.3-0.5-0.3-0.8V55c0-0.3-0.1-0.6-0.3-0.8
	c-0.2-0.2-0.5-0.3-0.8-0.3c-0.3,0-0.6,0.1-0.8,0.3c-0.2,0.2-0.3,0.5-0.3,0.8v7.5c0,0.3-0.1,0.6-0.3,0.8c-0.2,0.2-0.5,0.3-0.8,0.3
	c-0.3,0-0.6-0.1-0.8-0.3c-0.2-0.2-0.3-0.5-0.3-0.8V55c0-0.3-0.1-0.6-0.3-0.8c-0.2-0.2-0.5-0.3-0.8-0.3c-0.3,0-0.6,0.1-0.8,0.3
	c-0.2,0.2-0.3,0.5-0.3,0.8v9.7C-40.2,65.4-37.2,67.7-36.5,67.9L-36.5,67.9z M-36.5,67.9"/>
<g>
	<path fill="#FFFFFF" d="M11.3-31.1c-0.1-0.5-0.4-1-0.6-1.4c-2.2-5.4-7.1-7.3-11.1-7.3c-5.3,0-11.1,3.5-11.9,10.8v1.5
		c0,0.1,0,0.6,0.1,0.9c0.4,3.5,3.2,7.2,5.2,10.7c2.2,3.7,4.5,7.4,6.8,11.1C1.3-7.3,2.6-9.7,4-12c0.4-0.7,0.8-1.4,1.2-2
		c0.2-0.4,0.7-0.9,0.9-1.3c2.2-4,5.8-8.1,5.8-12.1v-1.6C11.9-29.5,11.4-31,11.3-31.1L11.3-31.1z M-0.2-23.6c-1.6,0-3.3-0.8-4.1-2.9
		c-0.1-0.3-0.1-1-0.1-1.1v-1c0-2.7,2.3-4,4.3-4c2.5,0,4.4,2,4.4,4.5C4.3-25.6,2.3-23.6-0.2-23.6L-0.2-23.6z M-0.2-23.6"/>
</g>
<g>
	<path d="M99.4-3h2.6v18.7c0,0.6,0.2,1.2,0.7,1.6c0.4,0.4,1,0.7,1.6,0.7c0.6,0,1.1-0.2,1.6-0.7c0.5-0.5,0.7-1,0.7-1.6v-38.4
		c0-0.3-0.1-0.6-0.3-0.8c-0.2-0.2-0.5-0.3-0.8-0.3h-0.8c-1.6,0-2.9,0.6-4.1,1.7c-1.1,1.1-1.7,2.5-1.7,4.1v14.4
		c0,0.2,0.1,0.3,0.2,0.4C99.1-3.1,99.3-3,99.4-3L99.4-3z M99.4-3"/>
	<path d="M86.7-8.7v24c0,0.6,0.2,1.2,0.7,1.6c0.4,0.4,1,0.7,1.6,0.7c0.6,0,1.1-0.2,1.6-0.7c0.5-0.5,0.7-1,0.7-1.6v-24
		c0.7-0.2,3.3-2.5,3.3-3.3v-9.7c0-0.3-0.1-0.6-0.3-0.8c-0.2-0.2-0.5-0.3-0.8-0.3c-0.3,0-0.6,0.1-0.8,0.3c-0.2,0.2-0.3,0.5-0.3,0.8
		v7.5c0,0.3-0.1,0.6-0.3,0.8c-0.2,0.2-0.5,0.3-0.8,0.3c-0.3,0-0.6-0.1-0.8-0.3c-0.2-0.2-0.3-0.5-0.3-0.8v-7.5c0-0.3-0.1-0.6-0.3-0.8
		c-0.2-0.2-0.5-0.3-0.8-0.3c-0.3,0-0.6,0.1-0.8,0.3c-0.2,0.2-0.3,0.5-0.3,0.8v7.5c0,0.3-0.1,0.6-0.3,0.8c-0.2,0.2-0.5,0.3-0.8,0.3
		c-0.3,0-0.6-0.1-0.8-0.3c-0.2-0.2-0.3-0.5-0.3-0.8v-7.5c0-0.3-0.1-0.6-0.3-0.8c-0.2-0.2-0.5-0.3-0.8-0.3c-0.3,0-0.6,0.1-0.8,0.3
		c-0.2,0.2-0.3,0.5-0.3,0.8v9.7C82.9-11.2,86-8.9,86.7-8.7L86.7-8.7z M86.7-8.7"/>
	<ellipse cx="97.6" cy="2.3" rx="1.3" ry="1.9"/>
</g>
</svg>
